<svg xmlns="http://www.w3.org/2000/svg" width="102" height="57" viewBox="0 0 102 57" fill="none">
  <path d="M47 37.9C47 41.4333 46.2333 44.4 44.7 46.8C43.2333 49.2 41.3333 51.1333 39 52.6C36.7333 54 34.2333 55 31.5 55.6C28.7667 56.2667 26.1667 56.6 23.7 56.6C19.1667 56.6 14.7 55.9333 10.3 54.6C7.49308 53.7795 4.92393 52.7213 2.59254 51.4253C0.567808 50.2997 0.284302 47.6111 1.79739 45.857L7.60725 39.1217C9.08108 37.4131 11.6677 37.2977 13.6144 38.4386C14.3388 38.8632 15.1007 39.2503 15.9 39.6C18.1 40.4667 20.2 40.9 22.2 40.9C23 40.9 23.7333 40.7667 24.4 40.5C25.1333 40.1667 25.5 39.6 25.5 38.8C25.5 37.9333 24.8667 37.2667 23.6 36.8C22.4 36.2667 20.2667 35.6333 17.2 34.9C15.5333 34.5 13.8333 33.9333 12.1 33.2C10.3667 32.4 8.76667 31.3667 7.3 30.1C5.9 28.8333 4.73333 27.3 3.8 25.5C2.86667 23.6333 2.4 21.4333 2.4 18.9C2.4 15.5 3.13333 12.6 4.6 10.2C6.13333 7.79999 8.03333 5.86666 10.3 4.39999C12.6333 2.86666 15.1333 1.76666 17.8 1.09999C20.5333 0.366663 23.1 0 25.5 0C29.5667 0 33.6 0.599999 37.6 1.8C40.0682 2.54046 42.3841 3.4586 44.5477 4.55444C46.6722 5.63045 47.0646 8.39506 45.5359 10.221L39.8591 17.0016C38.5674 18.5445 36.3456 18.8483 34.5163 18.0101C33.8493 17.7044 33.1772 17.4344 32.5 17.2C30.7667 16.6 29.0667 16.3 27.4 16.3C26.2667 16.3 25.3333 16.4667 24.6 16.8C23.8667 17.0667 23.5 17.6333 23.5 18.5C23.5 19.1667 23.9 19.7 24.7 20.1C25.5667 20.4333 27.5 20.9 30.5 21.5C32.5667 21.9 34.5667 22.5333 36.5 23.4C38.5 24.2 40.2667 25.2667 41.8 26.6C43.4 27.8667 44.6667 29.4333 45.6 31.3C46.5333 33.1667 47 35.3667 47 37.9Z" fill="#3B93F7"/>
  <path d="M83.7695 56.6C79.3029 56.6 75.2029 55.9333 71.4695 54.6C67.7362 53.2667 64.5029 51.3667 61.7695 48.9C59.0362 46.4333 56.9029 43.4667 55.3695 40C53.8362 36.5333 53.0695 32.6333 53.0695 28.3C53.0695 24.0333 53.8362 20.1667 55.3695 16.7C56.9695 13.1667 59.1695 10.1667 61.9695 7.7C64.7695 5.23333 68.0362 3.33333 71.7695 2C75.5695 0.666664 79.6695 0 84.0695 0C85.8695 0 87.6695 0.166663 89.4695 0.499996C91.3362 0.766663 93.1029 1.16666 94.7695 1.69999C96.5029 2.23333 98.0695 2.83333 99.4695 3.5C99.6487 3.58142 99.8243 3.66383 99.9965 3.74724C101.888 4.66384 102.241 7.04091 101.043 8.76902L93.875 19.1165C92.7598 20.7262 90.3179 20.8469 88.4695 20.2C87.2029 19.6667 85.9695 19.4 84.7695 19.4C83.6362 19.4 82.5362 19.6 81.4695 20C80.4029 20.3333 79.4362 20.9 78.5695 21.7C77.7695 22.4333 77.1029 23.3667 76.5695 24.5C76.0362 25.5667 75.7695 26.8333 75.7695 28.3C75.7695 29.7667 76.0362 31.0667 76.5695 32.2C77.1029 33.2667 77.7695 34.1667 78.5695 34.9C79.4362 35.5667 80.4029 36.1 81.4695 36.5C82.5362 36.8333 83.6362 37 84.7695 37C86.1029 37 87.4029 36.7667 88.6695 36.3C90.4641 35.5444 92.8326 35.6846 93.9662 37.2678L101.145 47.2937C102.39 49.0318 102.051 51.4625 100.172 52.4824C98.5889 53.342 96.788 54.1145 94.7695 54.8C91.3029 56 87.6362 56.6 83.7695 56.6Z" fill="#3B93F7"/>
</svg>