<svg xmlns="http://www.w3.org/2000/svg" width="131" height="116" viewBox="0 0 131 116" fill="none">
  <path fill-rule="evenodd" clip-rule="evenodd" d="M80.6944 92C80.6944 83.7157 73.9787 77 65.6944 77C57.4101 77 50.6944 83.7157 50.6944 92C50.6944 100.284 57.4101 107 65.6944 107C73.9787 107 80.6944 100.284 80.6944 92ZM100.694 92C100.694 72.67 85.0244 57 65.6944 57C46.3644 57 30.6944 72.67 30.6944 92C30.6944 101.29 34.3136 109.734 40.2188 116L10.0149 116C2.31692 116 -2.49434 107.667 1.35466 101L56.7803 5.00001C60.6293 -1.66666 70.2518 -1.66666 74.1008 5L129.526 101C133.375 107.667 128.564 116 120.866 116L91.17 116C97.0752 109.734 100.694 101.29 100.694 92Z" fill="#1459F5"/>
</svg>