<svg xmlns="http://www.w3.org/2000/svg" width="116" height="116" viewBox="0 0 116 116" fill="none">
  <path fill-rule="evenodd" clip-rule="evenodd" d="M115.694 24C115.694 32.2843 108.979 39 100.694 39C92.4101 39 85.6944 32.2843 85.6944 24C85.6944 15.7157 92.4101 9 100.694 9C108.979 9 115.694 15.7157 115.694 24ZM104.225 58.8242C103.064 58.9405 101.886 59 100.694 59C81.3644 59 65.6944 43.33 65.6944 24C65.6944 14.7103 69.3136 6.26599 75.2188 0H10.0149C2.31692 0 -2.49434 8.33333 1.35466 15L56.7803 111C60.6293 117.667 70.2518 117.667 74.1008 111L104.225 58.8242Z" fill="#1459F5"/>
</svg>